<?xml version="1.0" encoding="utf-8"?>
<svg version="1.2" baseProfile="tiny" id="Layer_1" xmlns="http://www.w3.org/2000/svg" xmlns:xlink="http://www.w3.org/1999/xlink"
	 x="0px" y="0px" viewBox="0 0 156.4 168" xml:space="preserve">
<g>
	<g>
		<path fill="#F0EBE1" d="M24.682,160.095c-0.083,0.124-0.184,0.241-0.308,0.353c-0.121,0.11-0.261,0.206-0.418,0.286
			c-0.156,0.081-0.325,0.143-0.507,0.19c-0.183,0.046-0.374,0.068-0.577,0.068c-0.363,0-0.701-0.064-1.012-0.193
			c-0.311-0.129-0.58-0.307-0.808-0.535c-0.228-0.228-0.406-0.498-0.535-0.812c-0.129-0.312-0.193-0.656-0.193-1.028
			c0-0.373,0.065-0.716,0.193-1.029c0.129-0.314,0.308-0.584,0.535-0.812c0.228-0.227,0.497-0.406,0.808-0.535
			c0.311-0.129,0.648-0.193,1.012-0.193c0.305,0,0.608,0.06,0.912,0.18c0.304,0.119,0.564,0.317,0.78,0.594l-0.435,0.324
			c-0.051-0.078-0.12-0.156-0.207-0.234c-0.088-0.078-0.188-0.147-0.301-0.207c-0.113-0.061-0.234-0.108-0.363-0.146
			c-0.129-0.036-0.258-0.055-0.387-0.055c-0.312,0-0.594,0.058-0.842,0.172c-0.249,0.115-0.459,0.27-0.633,0.463
			c-0.172,0.193-0.305,0.418-0.396,0.674c-0.092,0.255-0.139,0.523-0.139,0.805c0,0.28,0.047,0.549,0.139,0.804
			c0.092,0.256,0.225,0.48,0.396,0.674c0.174,0.193,0.384,0.348,0.633,0.463c0.248,0.115,0.529,0.173,0.842,0.173
			c0.129,0,0.257-0.012,0.384-0.035c0.126-0.022,0.251-0.061,0.373-0.117c0.122-0.056,0.237-0.13,0.345-0.225
			c0.108-0.094,0.209-0.213,0.301-0.355L24.682,160.095z"/>
		<path fill="#F0EBE1" d="M30.974,158.424c0,0.372-0.064,0.716-0.193,1.028c-0.129,0.314-0.309,0.584-0.535,0.812
			c-0.229,0.229-0.498,0.406-0.809,0.535c-0.31,0.129-0.648,0.193-1.012,0.193s-0.701-0.064-1.012-0.193
			c-0.311-0.129-0.58-0.307-0.809-0.535c-0.227-0.228-0.406-0.498-0.535-0.812c-0.129-0.312-0.193-0.656-0.193-1.028
			c0-0.373,0.064-0.716,0.193-1.029c0.129-0.314,0.308-0.584,0.535-0.812c0.229-0.227,0.498-0.406,0.809-0.535
			c0.311-0.129,0.648-0.193,1.012-0.193s0.701,0.064,1.012,0.193c0.311,0.129,0.58,0.308,0.809,0.535
			c0.227,0.228,0.406,0.498,0.535,0.812C30.909,157.708,30.974,158.051,30.974,158.424z M30.435,158.424
			c0-0.281-0.047-0.55-0.139-0.805c-0.092-0.256-0.225-0.48-0.397-0.674c-0.173-0.193-0.383-0.348-0.633-0.463
			c-0.248-0.114-0.529-0.172-0.842-0.172s-0.594,0.058-0.843,0.172c-0.249,0.115-0.459,0.27-0.632,0.463
			c-0.172,0.193-0.305,0.418-0.396,0.674c-0.093,0.255-0.139,0.523-0.139,0.805c0,0.28,0.046,0.549,0.139,0.804
			c0.092,0.256,0.225,0.48,0.396,0.674c0.173,0.193,0.383,0.348,0.632,0.463c0.249,0.115,0.53,0.173,0.843,0.173
			s0.594-0.058,0.842-0.173c0.25-0.115,0.46-0.27,0.633-0.463c0.172-0.193,0.305-0.418,0.397-0.674
			C30.388,158.973,30.435,158.704,30.435,158.424z"/>
		<path fill="#F0EBE1" d="M37.423,158.424c0,0.372-0.065,0.716-0.193,1.028c-0.129,0.314-0.307,0.584-0.535,0.812
			c-0.227,0.229-0.497,0.406-0.808,0.535c-0.312,0.129-0.647,0.193-1.012,0.193c-0.364,0-0.701-0.064-1.012-0.193
			c-0.312-0.129-0.58-0.307-0.808-0.535c-0.229-0.228-0.406-0.498-0.535-0.812c-0.129-0.312-0.193-0.656-0.193-1.028
			c0-0.373,0.064-0.716,0.193-1.029c0.129-0.314,0.307-0.584,0.535-0.812c0.228-0.227,0.496-0.406,0.808-0.535
			c0.31-0.129,0.647-0.193,1.012-0.193c0.364,0,0.7,0.064,1.012,0.193c0.311,0.129,0.58,0.308,0.808,0.535
			c0.229,0.228,0.406,0.498,0.535,0.812C37.359,157.708,37.423,158.051,37.423,158.424z M36.885,158.424
			c0-0.281-0.046-0.55-0.138-0.805c-0.093-0.256-0.225-0.48-0.398-0.674c-0.173-0.193-0.384-0.348-0.632-0.463
			c-0.249-0.114-0.529-0.172-0.843-0.172c-0.314,0-0.594,0.058-0.843,0.172c-0.248,0.115-0.459,0.27-0.632,0.463
			c-0.173,0.193-0.306,0.418-0.397,0.674c-0.092,0.255-0.138,0.523-0.138,0.805c0,0.28,0.046,0.549,0.138,0.804
			c0.092,0.256,0.225,0.48,0.397,0.674c0.173,0.193,0.384,0.348,0.632,0.463c0.249,0.115,0.529,0.173,0.843,0.173
			c0.313,0,0.594-0.058,0.843-0.173c0.248-0.115,0.459-0.27,0.632-0.463c0.173-0.193,0.305-0.418,0.398-0.674
			C36.839,158.973,36.885,158.704,36.885,158.424z"/>
		<path fill="#F0EBE1" d="M39.606,158.099h0.007h0.062l2.299-2.12h0.712l-2.466,2.217l2.604,2.673h-0.731l-2.403-2.521h-0.076
			h-0.007v2.521h-0.497v-4.89h0.497V158.099z"/>
		<path fill="#F0EBE1" d="M44.392,161.835h-0.456l0.463-1.623h0.56L44.392,161.835z"/>
		<path fill="#F0EBE1" d="M51.685,156.787c-0.217-0.318-0.531-0.477-0.946-0.477c-0.129,0-0.255,0.017-0.38,0.052
			c-0.124,0.034-0.236,0.087-0.335,0.158c-0.099,0.071-0.179,0.164-0.238,0.276c-0.06,0.113-0.089,0.245-0.089,0.397
			c0,0.221,0.061,0.393,0.185,0.515c0.125,0.122,0.279,0.222,0.463,0.3c0.184,0.079,0.386,0.148,0.604,0.211
			c0.218,0.062,0.42,0.145,0.604,0.249c0.184,0.104,0.338,0.24,0.463,0.41c0.123,0.171,0.186,0.403,0.186,0.698
			c0,0.221-0.047,0.42-0.141,0.597c-0.096,0.178-0.219,0.326-0.373,0.445c-0.154,0.12-0.328,0.212-0.519,0.276
			c-0.19,0.064-0.384,0.097-0.577,0.097c-0.299,0-0.583-0.056-0.853-0.169c-0.269-0.112-0.498-0.298-0.687-0.556l0.455-0.325
			c0.105,0.18,0.253,0.324,0.441,0.432c0.188,0.108,0.41,0.163,0.667,0.163c0.124,0,0.248-0.02,0.372-0.06
			c0.123-0.039,0.235-0.097,0.334-0.172c0.099-0.076,0.18-0.17,0.244-0.28c0.064-0.11,0.096-0.237,0.096-0.38
			c0-0.17-0.035-0.312-0.106-0.425c-0.071-0.112-0.165-0.207-0.283-0.283c-0.117-0.075-0.251-0.139-0.4-0.189
			c-0.15-0.051-0.304-0.102-0.463-0.152c-0.159-0.05-0.313-0.107-0.462-0.172c-0.15-0.064-0.283-0.146-0.401-0.245
			c-0.117-0.1-0.212-0.224-0.282-0.373c-0.072-0.15-0.107-0.338-0.107-0.564c0-0.234,0.045-0.439,0.135-0.614
			c0.09-0.175,0.209-0.32,0.359-0.436c0.148-0.114,0.318-0.2,0.507-0.255c0.188-0.056,0.382-0.083,0.58-0.083
			c0.276,0,0.527,0.044,0.753,0.131c0.226,0.088,0.436,0.242,0.629,0.463L51.685,156.787z"/>
		<path fill="#F0EBE1" d="M53.902,155.979h0.497v2.12h2.666v-2.12h0.497v4.89h-0.497v-2.314h-2.666v2.314h-0.497V155.979z"/>
		<path fill="#F0EBE1" d="M59.495,160.868h-0.58l2.127-4.89h0.483l2.127,4.89h-0.58l-0.538-1.284h-2.5L59.495,160.868z
			 M60.22,159.128h2.121l-1.057-2.569L60.22,159.128z"/>
		<path fill="#F0EBE1" d="M65.503,160.868h-0.497v-4.89h1.505c0.498,0,0.891,0.108,1.178,0.325c0.288,0.216,0.432,0.543,0.432,0.98
			c0,0.341-0.107,0.627-0.32,0.859c-0.215,0.232-0.524,0.367-0.93,0.404l1.409,2.32h-0.608l-1.34-2.273h-0.828V160.868z
			 M65.503,158.141h0.884c0.222,0,0.409-0.023,0.563-0.069c0.154-0.046,0.277-0.107,0.369-0.183c0.092-0.076,0.158-0.166,0.2-0.27
			s0.062-0.216,0.062-0.335c0-0.115-0.02-0.225-0.062-0.328c-0.042-0.103-0.108-0.194-0.2-0.273
			c-0.092-0.078-0.215-0.139-0.369-0.183c-0.154-0.044-0.342-0.065-0.563-0.065h-0.884V158.141z"/>
		<path fill="#F0EBE1" d="M70.289,160.412h2.618v0.456h-3.115v-4.89h3.031v0.456h-2.534v1.664h2.368v0.456h-2.368V160.412z"/>
		<path fill="#F0EBE1" d="M74.82,161.835h-0.456l0.463-1.623h0.56L74.82,161.835z"/>
		<path fill="#F0EBE1" d="M83.824,160.095c-0.082,0.124-0.186,0.241-0.307,0.353c-0.123,0.11-0.262,0.206-0.418,0.286
			c-0.156,0.081-0.326,0.143-0.508,0.19c-0.182,0.046-0.374,0.068-0.576,0.068c-0.364,0-0.702-0.064-1.013-0.193
			c-0.311-0.129-0.58-0.307-0.808-0.535c-0.228-0.228-0.406-0.498-0.535-0.812c-0.129-0.312-0.193-0.656-0.193-1.028
			c0-0.373,0.064-0.716,0.193-1.029c0.129-0.314,0.308-0.584,0.535-0.812c0.228-0.227,0.497-0.406,0.808-0.535
			c0.311-0.129,0.648-0.193,1.013-0.193c0.303,0,0.608,0.06,0.911,0.18c0.304,0.119,0.563,0.317,0.78,0.594l-0.436,0.324
			c-0.051-0.078-0.119-0.156-0.207-0.234c-0.088-0.078-0.187-0.147-0.301-0.207c-0.112-0.061-0.232-0.108-0.361-0.146
			c-0.129-0.036-0.258-0.055-0.387-0.055c-0.313,0-0.595,0.058-0.843,0.172c-0.249,0.115-0.459,0.27-0.633,0.463
			c-0.172,0.193-0.305,0.418-0.396,0.674c-0.092,0.255-0.139,0.523-0.139,0.805c0,0.28,0.047,0.549,0.139,0.804
			c0.092,0.256,0.225,0.48,0.396,0.674c0.174,0.193,0.384,0.348,0.633,0.463c0.248,0.115,0.529,0.173,0.843,0.173
			c0.129,0,0.256-0.012,0.383-0.035c0.127-0.022,0.251-0.061,0.373-0.117c0.121-0.056,0.236-0.13,0.346-0.225
			c0.107-0.094,0.207-0.213,0.3-0.355L83.824,160.095z"/>
		<path fill="#F0EBE1" d="M90.116,158.424c0,0.372-0.064,0.716-0.193,1.028c-0.129,0.314-0.308,0.584-0.535,0.812
			c-0.228,0.229-0.497,0.406-0.808,0.535c-0.312,0.129-0.649,0.193-1.012,0.193c-0.364,0-0.701-0.064-1.012-0.193
			c-0.312-0.129-0.58-0.307-0.808-0.535c-0.229-0.228-0.406-0.498-0.535-0.812c-0.129-0.312-0.193-0.656-0.193-1.028
			c0-0.373,0.065-0.716,0.193-1.029c0.129-0.314,0.307-0.584,0.535-0.812c0.229-0.227,0.497-0.406,0.808-0.535
			c0.311-0.129,0.648-0.193,1.012-0.193c0.363,0,0.7,0.064,1.012,0.193c0.31,0.129,0.58,0.308,0.808,0.535
			c0.228,0.228,0.406,0.498,0.535,0.812C90.052,157.708,90.116,158.051,90.116,158.424z M89.578,158.424
			c0-0.281-0.047-0.55-0.139-0.805c-0.092-0.256-0.225-0.48-0.396-0.674c-0.174-0.193-0.384-0.348-0.633-0.463
			c-0.248-0.114-0.529-0.172-0.842-0.172c-0.313,0-0.594,0.058-0.844,0.172c-0.248,0.115-0.459,0.27-0.631,0.463
			c-0.173,0.193-0.306,0.418-0.397,0.674c-0.093,0.255-0.138,0.523-0.138,0.805c0,0.28,0.045,0.549,0.138,0.804
			c0.092,0.256,0.225,0.48,0.397,0.674c0.172,0.193,0.383,0.348,0.631,0.463c0.25,0.115,0.53,0.173,0.844,0.173
			c0.312,0,0.594-0.058,0.842-0.173c0.249-0.115,0.459-0.27,0.633-0.463c0.172-0.193,0.305-0.418,0.396-0.674
			C89.532,158.973,89.578,158.704,89.578,158.424z"/>
		<path fill="#F0EBE1" d="M92.299,160.412h2.279v0.456h-2.777v-4.89h0.498V160.412z"/>
		<path fill="#F0EBE1" d="M96.442,160.412h2.279v0.456h-2.776v-4.89h0.497V160.412z"/>
		<path fill="#F0EBE1" d="M100.006,160.868h-0.58l2.127-4.89h0.483l2.127,4.89h-0.58l-0.538-1.284h-2.5L100.006,160.868z
			 M100.732,159.128h2.12l-1.057-2.569L100.732,159.128z"/>
		<path fill="#F0EBE1" d="M105.517,155.979h1.457c0.202,0,0.399,0.02,0.587,0.062c0.188,0.041,0.356,0.11,0.504,0.207
			c0.147,0.097,0.265,0.224,0.353,0.38c0.088,0.156,0.131,0.35,0.131,0.58c0,0.267-0.074,0.496-0.224,0.688
			c-0.15,0.19-0.363,0.318-0.64,0.383v0.014c0.346,0.028,0.616,0.148,0.811,0.362c0.196,0.215,0.294,0.501,0.294,0.86
			c0,0.078-0.02,0.193-0.059,0.346c-0.039,0.151-0.121,0.303-0.245,0.452c-0.125,0.149-0.304,0.279-0.539,0.39
			c-0.234,0.11-0.548,0.166-0.939,0.166h-1.491V155.979z M106.014,158.119h1.001c0.12,0,0.238-0.015,0.356-0.045
			c0.117-0.029,0.223-0.079,0.317-0.148c0.095-0.068,0.172-0.157,0.231-0.266c0.06-0.108,0.09-0.24,0.09-0.396
			c0-0.051-0.011-0.122-0.031-0.215c-0.02-0.092-0.066-0.184-0.138-0.276c-0.072-0.092-0.177-0.171-0.314-0.238
			c-0.139-0.066-0.325-0.1-0.56-0.1h-0.953V158.119z M106.014,160.412h0.953c0.18,0,0.348-0.019,0.504-0.055
			c0.156-0.037,0.293-0.094,0.407-0.17c0.115-0.075,0.206-0.171,0.273-0.286c0.066-0.115,0.1-0.253,0.1-0.414
			c0-0.322-0.104-0.561-0.311-0.719c-0.207-0.156-0.511-0.234-0.911-0.234h-1.016V160.412z"/>
		<path fill="#F0EBE1" d="M115.323,158.424c0,0.372-0.064,0.716-0.193,1.028c-0.129,0.314-0.307,0.584-0.535,0.812
			c-0.228,0.229-0.497,0.406-0.808,0.535c-0.311,0.129-0.648,0.193-1.012,0.193c-0.364,0-0.701-0.064-1.012-0.193
			c-0.311-0.129-0.58-0.307-0.808-0.535c-0.229-0.228-0.407-0.498-0.536-0.812c-0.129-0.312-0.193-0.656-0.193-1.028
			c0-0.373,0.064-0.716,0.193-1.029c0.129-0.314,0.308-0.584,0.536-0.812c0.227-0.227,0.497-0.406,0.808-0.535
			c0.311-0.129,0.647-0.193,1.012-0.193c0.363,0,0.701,0.064,1.012,0.193c0.311,0.129,0.58,0.308,0.808,0.535
			c0.229,0.228,0.406,0.498,0.535,0.812C115.258,157.708,115.323,158.051,115.323,158.424z M114.784,158.424
			c0-0.281-0.046-0.55-0.139-0.805c-0.092-0.256-0.224-0.48-0.396-0.674c-0.173-0.193-0.384-0.348-0.632-0.463
			c-0.249-0.114-0.53-0.172-0.843-0.172c-0.313,0-0.594,0.058-0.843,0.172c-0.248,0.115-0.459,0.27-0.632,0.463
			c-0.173,0.193-0.305,0.418-0.397,0.674c-0.092,0.255-0.138,0.523-0.138,0.805c0,0.28,0.046,0.549,0.138,0.804
			c0.093,0.256,0.225,0.48,0.397,0.674c0.173,0.193,0.384,0.348,0.632,0.463c0.249,0.115,0.529,0.173,0.843,0.173
			c0.312,0,0.594-0.058,0.843-0.173c0.248-0.115,0.459-0.27,0.632-0.463c0.173-0.193,0.305-0.418,0.396-0.674
			C114.739,158.973,114.784,158.704,114.784,158.424z"/>
		<path fill="#F0EBE1" d="M117.505,160.868h-0.497v-4.89h1.506c0.497,0,0.89,0.108,1.177,0.325c0.288,0.216,0.432,0.543,0.432,0.98
			c0,0.341-0.107,0.627-0.321,0.859c-0.214,0.232-0.523,0.367-0.929,0.404l1.409,2.32h-0.607l-1.34-2.273h-0.829V160.868z
			 M117.505,158.141h0.884c0.222,0,0.409-0.023,0.563-0.069c0.153-0.046,0.277-0.107,0.369-0.183c0.092-0.076,0.159-0.166,0.2-0.27
			s0.063-0.216,0.063-0.335c0-0.115-0.022-0.225-0.063-0.328c-0.041-0.103-0.108-0.194-0.2-0.273
			c-0.092-0.078-0.216-0.139-0.369-0.183c-0.154-0.044-0.342-0.065-0.563-0.065h-0.884V158.141z"/>
		<path fill="#F0EBE1" d="M121.711,160.868h-0.58l2.127-4.89h0.483l2.127,4.89h-0.58l-0.538-1.284h-2.5L121.711,160.868z
			 M122.437,159.128h2.12l-1.057-2.569L122.437,159.128z"/>
		<path fill="#F0EBE1" d="M128.789,160.868h-0.497v-4.434h-1.637v-0.456h3.771v0.456h-1.637V160.868z"/>
		<path fill="#F0EBE1" d="M132.374,160.412h2.617v0.456h-3.114v-4.89h3.031v0.456h-2.534v1.664h2.369v0.456h-2.369V160.412z"/>
	</g>
	<path fill="#F0EBE1" d="M9.865,149.35c-2.189,0-3.533-1.473-3.533-3.368v-6.074c0-1.896,1.344-3.369,3.533-3.369
		c2.172,0,3.312,1.363,3.312,3.203v1.492h-2.043v-1.473c0-0.719-0.404-1.216-1.232-1.216c-0.829,0-1.252,0.497-1.252,1.177v6.444
		c0,0.681,0.423,1.177,1.252,1.177c0.828,0,1.232-0.496,1.232-1.215v-1.473h2.043v1.491C13.177,147.988,12.036,149.35,9.865,149.35"
		/>
	<polygon fill="#F0EBE1" points="22.988,149.073 22.988,144.048 20.429,144.048 20.429,149.073 18.146,149.073 18.146,136.815 
		20.429,136.815 20.429,142.005 22.988,142.005 22.988,136.815 25.286,136.815 25.286,149.073 	"/>
	<path fill="#F0EBE1" d="M33.881,149.351c-2.134,0-3.478-1.4-3.478-3.35v-6.112c0-1.934,1.344-3.331,3.478-3.331
		c2.155,0,3.48,1.398,3.48,3.331v6.112C37.361,147.95,36.036,149.351,33.881,149.351 M35.06,139.741
		c0-0.717-0.423-1.196-1.179-1.196c-0.735,0-1.157,0.48-1.157,1.196v6.405c0,0.717,0.422,1.197,1.157,1.197
		c0.756,0,1.179-0.48,1.179-1.197V139.741z"/>
	<path fill="#F0EBE1" d="M46.269,144.38h-1.492v4.693h-2.281v-12.259h3.774c1.729,0,2.779,0.995,2.779,2.762v2.061
		C49.048,143.385,47.998,144.38,46.269,144.38 M46.839,139.613c0-0.606-0.24-0.92-0.811-0.92h-1.252v3.92h1.252
		c0.57,0,0.811-0.312,0.811-0.921V139.613z"/>
	<path fill="#F0EBE1" d="M57.715,144.38h-1.489v4.693h-2.283v-12.259h3.772c1.729,0,2.78,0.995,2.78,2.762v2.061
		C60.495,143.385,59.445,144.38,57.715,144.38 M58.286,139.613c0-0.606-0.239-0.92-0.809-0.92h-1.252v3.92h1.252
		c0.569,0,0.809-0.312,0.809-0.921V139.613z"/>
	<rect x="65.39" y="136.815" fill="#F0EBE1" width="2.282" height="12.259"/>
	<polygon fill="#F0EBE1" points="78.274,149.073 75.899,143.845 75.033,141.895 75.033,149.073 72.937,149.073 72.937,136.815 
		74.906,136.815 77.169,142.135 77.979,144.086 77.979,136.815 80.04,136.815 80.04,149.073 	"/>
	<path fill="#F0EBE1" d="M90.88,149.073l-0.312-0.976c-0.405,0.811-1.251,1.253-2.245,1.253c-2.025,0-3.148-1.436-3.148-3.204
		v-6.405c0-1.675,1.289-3.184,3.497-3.184c2.209,0,3.388,1.454,3.388,3.184v1.27h-2.19v-1.362c0-0.589-0.368-1.105-1.179-1.105
		c-0.81,0-1.196,0.533-1.196,1.141v6.535c0,0.606,0.423,1.141,1.215,1.141c0.811,0,1.215-0.534,1.215-1.141v-1.713h-1.195v-1.655
		h3.404v6.221H90.88z"/>
	<path fill="#F0EBE1" d="M101.059,149.074h-3.865v-12.26h3.828c1.675,0,2.706,0.903,2.706,2.597v1.324
		c0,1.05-0.405,1.841-1.454,2.062c1.103,0.294,1.509,1.048,1.509,2.079v1.601C103.782,148.19,102.734,149.074,101.059,149.074
		 M101.536,139.576c0-0.553-0.239-0.885-0.809-0.885h-1.235v3.368h1.142c0.591,0,0.902-0.312,0.902-0.957V139.576z M101.574,144.712
		c0-0.646-0.313-0.978-0.901-0.978h-1.18v3.461h1.289c0.571,0,0.792-0.312,0.792-0.884V144.712z"/>
	<polygon fill="#F0EBE1" points="108.861,149.073 108.861,136.815 111.143,136.815 111.143,147.049 114.567,147.049 
		114.567,149.073 	"/>
	<path fill="#F0EBE1" d="M122.609,149.351c-2.135,0-3.479-1.4-3.479-3.35v-6.112c0-1.934,1.344-3.331,3.479-3.331
		c2.154,0,3.479,1.398,3.479,3.331v6.112C126.088,147.95,124.763,149.351,122.609,149.351 M123.787,139.741
		c0-0.717-0.424-1.196-1.179-1.196c-0.735,0-1.16,0.48-1.16,1.196v6.405c0,0.717,0.425,1.197,1.16,1.197
		c0.755,0,1.179-0.48,1.179-1.197V139.741z"/>
	<path fill="#F0EBE1" d="M134.626,149.35c-2.19,0-3.532-1.473-3.532-3.368v-6.074c0-1.896,1.343-3.369,3.532-3.369
		c2.173,0,3.314,1.363,3.314,3.203v1.492h-2.043v-1.473c0-0.719-0.405-1.216-1.234-1.216c-0.828,0-1.251,0.497-1.251,1.177v6.444
		c0,0.681,0.423,1.177,1.251,1.177c0.829,0,1.234-0.496,1.234-1.215v-1.473h2.043v1.491
		C137.941,147.988,136.799,149.35,134.626,149.35"/>
	<polygon fill="#F0EBE1" points="147.676,149.073 145.983,144.03 145.192,145.651 145.192,149.073 142.909,149.073 142.909,136.815 
		145.192,136.815 145.192,142.429 147.657,136.815 149.958,136.815 147.547,141.987 150.069,149.073 	"/>
	<path fill="#F3743A" d="M125.009,54.536c-0.065-6.375,0.137-19.901,0.171-21.7c0.035-1.796-0.236-13.936-0.272-14.375
		c-0.034-0.442-0.168-1.323-0.405-1.594c-0.239-0.273-0.984-0.476-1.899-0.543c-0.917-0.068-1.663,0.034-2.593,0
		c-0.932-0.034-1.375-0.169-1.635-0.238c-0.265-0.339-0.351-0.405,0.055-2.509c0.408-2.103,1.019-4.611,1.221-5.56
		c0.204-0.95,0.07-1.357-0.608-1.492c-0.678-0.135-3.119-0.339-3.119-0.339c-0.941-0.085-2.17,0.103-2.78,0.204
		c-0.61,0.103-1.154,0.711-1.018,1.695c0.136,0.984,0.41,0.665,1.001,3.94c0.189,1.058,0.32,1.824,0.32,3.045
		c0,1.22-0.405,0.813-0.543,0.915c-0.133,0.101-5.424,0.101-5.865,0.135c-0.44,0.035-0.813,0-1.085,0.238
		c-0.269,0.236-0.475,0.236-0.509,1.321c-0.035,1.087,0.169,9.019,0.068,14.581c-0.104,5.56-0.305,10.477-0.575,19.937
		c-0.271,9.459,0.168,12.682,0.168,15.632c0,2.948,0.035,19.902-0.104,22.987c-0.137,3.086,0.002,12.343,0.002,12.885
		c0,0.543-0.032,1.119,0.204,2.035c0.236,0.914,1.017,1.628,1.661,1.727c0.645,0.103,1.933,0.375,3.119,0.306
		c1.188-0.068,1.391,0.238,2.339,0.27c0.95,0.032,6.037-0.066,7.9-0.1c1.865-0.034,2.139,0.339,3.121-0.17
		c0.982-0.508,1.05-1.525,1.084-2.102c0.035-0.575,0.203-13.392,0.271-17.02c0.067-3.628,0.406-20.175,0.499-22.041
		C125.299,64.742,125.077,60.912,125.009,54.536 M117.016,9.496c-0.051,0.797-0.283,1.311-1.045,1.195
		c-1.938-0.299-1.044-3.033,0-2.734C117.016,8.256,117.065,8.703,117.016,9.496"/>
	<path fill="#F68B5C" d="M35.307,40.399c-2.006,0.211-2.059,2.112-2.059,3.697c0,1.583,0.686,3.115,0.951,4.596
		c0.264,1.477-0.687,3.062-1.584,4.048c-0.899,0.985-2.537,1.234-3.646,1.234c-1.108,0-3.381-1.057-4.859-1.216
		c-1.479-0.158-3.803,0.687-3.803,3.592c0,0,0,3.486,2.959,3.697c2.957,0.213,3.803-1.003,5.757-1.32
		c1.954-0.316,3.433,0.687,4.701,2.485c1.267,1.794,0.104,5.756,0,6.706c-0.106,0.95-0.369,2.323,0.739,3.803
		c1.109,1.48,3.433,0.846,5.547,0.792c2.111-0.051,11.619,0,17.799,0c6.182,0,15.478-0.475,17.113-0.475
		c1.637,0,2.537-1.85,2.59-3.75c0.054-1.901,0.211-16.534,0.211-21.549c0-5.02-0.157-4.703-1.479-5.601
		c-1.322-0.898-2.59-0.687-6.18-0.687c-3.592,0-15.848-0.158-18.541-0.317C48.829,39.976,37.315,40.187,35.307,40.399
		 M25.616,56.379c0,0.942-0.918,1.401-1.455,1.401c-0.533,0-1.453-0.354-1.453-1.401c0-1.047,0.766-1.352,1.453-1.352
		C24.851,55.027,25.616,55.434,25.616,56.379"/>
	<path fill="#F3743A" d="M51.388,16.717c-1.404,0.034-8.219,0.402-10.123,0.498c-1.906,0.1-5.481,0.037-6.682,0.002
		c-1.201-0.032-1.205,0.336-1.373,0.903c-0.166,0.569,0.033,1.504,0,2.441c-0.033,0.933-0.066,2.665-0.166,3.789
		c-0.1,1.125-3.216,0.032-3.716-0.035c-0.501-0.066-2.172-0.633-2.673-0.734c-0.501-0.102-0.7-0.034-0.868,0.201
		c-0.167,0.234-0.167,1.08-0.202,2.854v4.135c0,0.333,0.301,0.367,0.704,0.301c0.401-0.068,2.272-0.635,2.839-0.77
		c0.567-0.133,3.614-0.746,3.715-0.646c0.101,0.099,0.166,3.484,0.135,4.184c-0.033,0.702,0.031,2.769,0.266,3.071
		c0.234,0.3,1.237,0.4,2.84,0.508c1.605,0.106,6.483,0.027,9.122,0c2.642-0.027,4.679-0.041,6.048-0.005
		c1.371,0.032,1.905-0.068,2.406-0.169c0.503-0.1,0.535-0.199,0.668-0.836c0.137-0.634,0.034-3.588,0.137-8.332
		c0.098-4.745,0.166-7.049,0-9.253C54.294,16.618,52.791,16.684,51.388,16.717 M28.636,26.408c0.422,0.059,0.933,0.5,0.963,1.087
		c0.029,0.587-0.664,1.175-1.116,1.148c-0.45-0.031-1.054-0.177-1.113-1.148C27.312,26.557,28.212,26.349,28.636,26.408"/>
	<path fill="#F15F23" d="M49.976,75.542c-3.685,0.111-3.732-0.115-9.66,0c-5.924,0.111-6.702,1.696-7.159,4.254
		c-0.454,2.557-0.14,8.512-0.14,14.553c0,0-0.336,4.6-0.106,9.726c0.228,5.129,3.76,4.564,8.317,4.68
		c4.558,0.114,18.184,0.481,20.813-0.028c4.15-0.806,3.963-2.086,3.963-5.811c0-3.874,0.867-14.9,0.299-21.46
		c-0.57-6.561-2-5.874-7.477-5.948C55.292,75.459,53.66,75.427,49.976,75.542 M39.517,104.489c0,1.128-1.125,1.896-1.83,1.896
		c-0.701,0-1.83-0.79-1.83-1.896c0-1.593,1.219-1.688,1.879-1.688C38.392,102.802,39.517,103.365,39.517,104.489"/>
	<path fill="#F15F23" d="M91.598,40.079c-4.681,0-6.299-0.302-8.219,1.737c-1.921,2.039-2.646,6.495-2.646,18.355
		c0,12.025,0.175,20.306,1.977,22.381c1.798,2.074,4.607,2.375,8.889,2.375c6.631,0,8.078,0.11,9.301-2.78
		c1.326-3.135,0.935-11.843,0.924-19.78c-0.01-9.522,0.106-17.18-1.207-19.641C98.901,39.508,96.276,40.079,91.598,40.079
		 M87.267,43.416c1.159,0.869,0.371,2.069,0.371,2.069s-0.78,1.032-1.905,0.399c-1.12-0.635-0.332-1.992-0.332-1.992
		S86.314,42.7,87.267,43.416"/>
	<path fill="#F3743A" d="M69.105,108.186c0,0,0.062-0.139,1.35,0.37c1.285,0.509,1.484,1.055,1.484,1.64
		c0,0.584-0.447,5.569-0.348,6.271c0.098,0.702,0.946,1.325,1.758,1.362c0.815,0.039,2.199-0.194,2.199-1.518
		c0-1.324-0.545-5.61-0.545-6.192c0-0.588,0.25-1.364,1.881-1.834c1.635-0.467,1.31-0.079,1.31-0.079s0.021-31.336,0-31.643
		c-0.021-0.307,0.163-1.165-0.9-1.154c-1.066,0.008-3.85,0.008-3.85,0.008s-3.418-0.02-3.785,0
		c-0.369,0.022-0.532,0.267-0.554,0.653C69.084,76.46,69.105,108.186,69.105,108.186 M73.668,115.532
		c0.643,0,0.916,0.545,0.868,0.779c-0.05,0.233-0.248,0.603-0.99,0.543c-0.518-0.038-0.767-0.29-0.791-0.584
		C72.73,115.979,73.028,115.532,73.668,115.532"/>
	<path fill="#F68B5C" d="M101.009,21.18c-0.462-5.312-1.621-4.757-6.057-4.818c-0.028,0-6.847-0.001-6.877-0.001
		c-2.579,0-14.557-0.473-16.699-0.157c-2.857,0.422-9.746,0.216-10.722,0.395c-2.555,0.454-3.014,1.598-3.308,3.239
		c-0.369,2.068-0.135,0.928-0.135,5.82c0,0-0.27,3.724-0.084,7.876c0.186,4.155,3.045,3.697,6.738,3.792
		c3.69,0.091,32.086,0.386,34.214-0.026c3.36-0.651,3.209-1.686,3.209-4.704C101.289,29.459,101.472,26.492,101.009,21.18"/>
	<path fill="#F68B5C" d="M100.834,92.152c-2.056-3.224-5.485-5.096-9.223-5.125c-3.734-0.032-8.338,2.147-10.21,6.999
		c-1.875,4.851-0.032,9.611,2.821,12.096c2.724,2.37,5.188,2.788,5.761,2.847c-0.126,0.682-0.265,1.425-0.312,1.845
		c-0.143,1.162-0.559,2.777-0.559,3.24c0,0.464-0.177,1.069,0.463,1.247c0.645,0.177,1.862,0.232,2.194,0.232
		c1.363,0,1.815,0.053,2.099-0.341c0.284-0.392,0.002-1.128-0.13-2.92c-0.108-1.464-0.246-2.544-0.364-3.313
		c0.719-0.088,4.171-0.501,7.029-4.433C103.504,100.259,102.891,95.376,100.834,92.152 M92.414,113.316
		c-0.035,0.403-0.168,0.598-0.674,0.63c-0.502,0.033-0.974-0.259-0.906-0.797c0.069-0.539,0.471-0.672,0.906-0.739
		C92.376,112.312,92.448,112.913,92.414,113.316"/>
</g>
<g>
</g>
<g>
</g>
<g>
</g>
<g>
</g>
<g>
</g>
<g>
</g>
</svg>
