<?xml version="1.0" encoding="utf-8"?>
<svg version="1.2" baseProfile="tiny" id="Layer_1" xmlns="http://www.w3.org/2000/svg" xmlns:xlink="http://www.w3.org/1999/xlink"
	 x="0px" y="0px" viewBox="0 0 274.959 396.833" xml:space="preserve">
<g>
	<path fill="#F1ECE2" d="M229.161,96.427h1.58v-9.798h-1.37v5.865l-1.583-5.865h-1.931v9.798h1.384V89.33L229.161,96.427z
		 M221.698,88.027h2.66v-1.398h-4.199v9.798h4.199v-1.398h-2.66v-2.872h2.114v-1.398h-2.114V88.027z M215.16,92.227h1.751v4.2h1.567
		v-9.798h-1.567v4.2h-1.751v-4.2h-1.539v9.798h1.539V92.227z M210.668,92.774v1.401c0,0.7-0.309,0.952-0.799,0.952
		c-0.491,0-0.799-0.252-0.799-0.952v-5.294c0-0.7,0.308-0.966,0.799-0.966c0.49,0,0.799,0.266,0.799,0.966v1.05h1.454v-0.952
		c0-1.567-0.783-2.462-2.295-2.462c-1.512,0-2.295,0.895-2.295,2.462v5.098c0,1.567,0.783,2.462,2.295,2.462
		c1.512,0,2.295-0.895,2.295-2.462v-1.303H210.668z M201.666,88.027h1.61v8.4h1.538v-8.4h1.61v-1.398h-4.758V88.027z
		 M198.894,96.427h1.538v-9.798h-1.538V96.427z M196.05,96.427h1.582l-2.142-5.431l2.142-4.367h-1.54l-2.016,4.269v-4.269h-1.538
		v9.798h1.538v-3.009l0.476-0.896L196.05,96.427z M185.635,88.027h2.66v-1.398h-4.199v9.798h4.199v-1.398h-2.66v-2.872h2.114v-1.398
		h-2.114V88.027z M179.097,92.227h1.751v4.2h1.567v-9.798h-1.567v4.2h-1.751v-4.2h-1.539v9.798h1.539V92.227z M171.567,88.027h1.61
		v8.4h1.538v-8.4h1.61v-1.398h-4.758V88.027z M166.037,96.427h1.58v-9.798h-1.37v5.865l-1.583-5.865h-1.931v9.798h1.384V89.33
		L166.037,96.427z M159.527,96.427h1.538v-9.798h-1.538V96.427z M150.805,88.027h1.61v8.4h1.538v-8.4h1.61v-1.398h-4.758V88.027z
		 M147.738,88.365l0.742,4.956h-1.483L147.738,88.365z M148.942,86.629h-2.253l-1.568,9.798h1.414l0.266-1.778h1.889l0.266,1.778
		h1.553L148.942,86.629z M141.353,88.027h2.66v-1.398h-4.198v9.798h4.198v-1.398h-2.66v-2.872h2.114v-1.398h-2.114V88.027z
		 M134.816,92.227h1.751v4.2h1.567v-9.798h-1.567v4.2h-1.751v-4.2h-1.539v9.798h1.539V92.227z M126.374,88.027h2.66v-1.398h-4.199
		v9.798h4.199v-1.398h-2.66v-2.872h2.114v-1.398h-2.114V88.027z M119.836,92.227h1.752v4.2h1.566v-9.798h-1.566v4.2h-1.752v-4.2
		h-1.538v9.798h1.538V92.227z M112.306,88.027h1.61v8.4h1.538v-8.4h1.61v-1.398h-4.758V88.027z M106.453,88.027
		c0.491,0,0.757,0.224,0.757,0.924v1.471c0,0.701-0.266,0.925-0.757,0.925h-0.729v-3.32H106.453z M106.453,86.629h-2.267v9.798
		h1.538v-3.682h0.729c1.54,0,2.295-0.853,2.295-2.421V89.05C108.748,87.482,107.993,86.629,106.453,86.629 M97.984,86.629v7.462
		c0,1.567,0.783,2.462,2.295,2.462s2.295-0.895,2.295-2.462v-7.462h-1.454v7.56c0,0.7-0.308,0.952-0.799,0.952
		c-0.49,0-0.799-0.252-0.799-0.952v-7.56H97.984z M92.076,96.427h1.58v-9.798h-1.37v5.865l-1.583-5.865h-1.931v9.798h1.384V89.33
		L92.076,96.427z M84.879,88.027c0.547,0,0.785,0.308,0.785,1.009v0.966c0,0.785-0.35,1.037-0.925,1.037h-0.602v-3.012H84.879z
		 M87.385,96.427c-0.154-0.364-0.168-0.714-0.168-1.19v-1.512c0-1.022-0.252-1.763-1.021-2.085c0.685-0.322,1.007-0.979,1.007-1.988
		v-0.771c0-1.511-0.686-2.252-2.282-2.252h-2.323v9.798h1.539v-3.99h0.532c0.701,0,1.009,0.336,1.009,1.246v1.54
		c0,0.798,0.056,0.952,0.14,1.204H87.385z M76.396,86.629v7.462c0,1.567,0.783,2.462,2.295,2.462c1.513,0,2.296-0.895,2.296-2.462
		v-7.462h-1.455v7.56c0,0.7-0.308,0.952-0.799,0.952c-0.49,0-0.798-0.252-0.798-0.952v-7.56H76.396z M70.475,88.027h1.61v8.4h1.538
		v-8.4h1.61v-1.398h-4.758V88.027z M62.201,88.979c0,2.801,3.01,3.179,3.01,5.196c0,0.7-0.309,0.952-0.799,0.952
		c-0.491,0-0.799-0.252-0.799-0.952v-0.701h-1.454v0.603c0,1.567,0.783,2.462,2.295,2.462c1.512,0,2.295-0.895,2.295-2.462
		c0-2.801-3.01-3.179-3.01-5.196c0-0.7,0.28-0.966,0.771-0.966c0.49,0,0.771,0.266,0.771,0.966v0.406h1.454v-0.308
		c0-1.567-0.769-2.462-2.267-2.462C62.97,86.517,62.201,87.412,62.201,88.979 M59.89,88.111l-0.406,1.4h0.63l0.671-1.554v-1.328
		h-1.482v1.482H59.89z M53.311,88.027h1.61v8.4h1.538v-8.4h1.61v-1.398h-4.758V88.027z M49.585,88.027h2.66v-1.398h-4.198v9.798
		h4.198v-1.398h-2.66v-2.872h2.114v-1.398h-2.114V88.027z M42.741,96.427h4.072v-1.398h-2.534v-8.4h-1.538V96.427z"/>
	<path fill="#F1ECE2" d="M256.912,65.71c1.306-0.98,2.433-2.286,3.381-3.92c0.946-1.632,1.421-3.479,1.421-5.537
		c0-2.058-0.72-4.018-2.156-5.88c-1.438-1.862-3.006-3.315-4.704-4.361c-1.7-1.044-3.268-2.318-4.704-3.822
		c-1.438-1.502-2.156-3.102-2.156-4.802c0-1.698,0.701-3.07,2.107-4.116c1.404-1.044,2.857-1.568,4.361-1.568
		c1.502,0,2.661,0.245,3.479,0.735c0.816,0.49,1.225,1.225,1.225,2.205c0,0.98-0.752,1.928-2.254,2.842
		c-1.504,0.916-2.254,1.602-2.254,2.058c0,1.96,1.061,2.94,3.185,2.94c2.122,0,3.805-0.75,5.047-2.254
		c1.24-1.502,1.862-3.283,1.862-5.341c0-2.058-0.948-3.577-2.842-4.557c-1.896-0.98-4.214-1.47-6.958-1.47
		c-4.378,0-7.825,1.127-10.339,3.381c-2.516,2.254-3.773,5.032-3.773,8.33c0,3.3,1.338,6.223,4.018,8.771
		c1.11,1.046,2.22,2.092,3.332,3.136c1.11,1.046,2.058,2.254,2.842,3.626c0.784,1.372,1.176,2.957,1.176,4.753
		c0,1.798-0.801,3.447-2.401,4.949c-1.602,1.504-3.479,2.254-5.635,2.254c-3.66,0-5.488-1.632-5.488-4.9
		c0-1.632,0.62-3.07,1.862-4.312c-0.458-1.176-1.487-1.764-3.087-1.764c-1.602,0-2.859,0.654-3.773,1.96
		c-0.916,1.308-1.372,2.744-1.372,4.312c0,2.744,1.24,4.819,3.724,6.223c2.482,1.404,5.573,2.498,9.212,2.107
		c6.891-0.74,12.891-5.665,15.057-9.915 M226.582,44.346c-2.712,2.418-5.309,3.626-7.791,3.626c-2.483,0-3.724-0.652-3.724-1.96
		c0-1.96,1.568-4.508,4.704-7.644c3.136-3.136,5.978-4.704,8.526-4.704c1.829,0,2.744,0.948,2.744,2.842
		C230.779,39.316,229.293,41.93,226.582,44.346 M240.743,44.934c-2.614,4.966-4.949,8.771-7.007,11.417s-4.541,5.032-7.448,7.154
		c-2.908,2.124-5.733,3.185-8.477,3.185c-4.639,0-6.958-2.744-6.958-8.232c0-2.548,0.62-5.488,1.862-8.82
		c1.306,0.72,3.332,1.078,6.076,1.078c4.704,0,8.787-1.11,12.25-3.332c3.462-2.22,5.194-5.16,5.194-8.82
		c0-2.156-0.882-4.001-2.646-5.537c-1.764-1.534-4.116-2.303-7.056-2.303c-6.534,0-12.25,2.842-17.15,8.526
		c-4.9,5.684-7.35,11.858-7.35,18.522c0,4.378,1.274,7.629,3.822,9.751c2.548,2.124,5.896,3.185,10.045,3.185
		c4.148,0,8.281-1.502,12.397-4.508c1.633-1.24,3.299-2.906,4.998-4.998c1.698-2.09,3.054-3.92,4.067-5.488
		c1.012-1.568,2.041-3.234,3.087-4.998c1.045-1.764,1.872-3.888,1.966-5.088c0.1-1.27-1.515-4.05-1.474-3.66
		C241.061,43.108,241.121,44.128,240.743,44.934 M188.02,36.408c-5.424,9.604-8.134,18.36-8.134,26.264
		c0,5.096,1.828,7.644,5.488,7.644c2.09,0,4.41-1.012,6.958-3.038c2.548-2.024,4.817-4.393,6.811-7.105
		c1.992-2.71,4.197-6.091,6.615-10.143c0.652-1.11,0.98-2.269,0.98-3.479c0-1.208-0.196-1.813-0.588-1.813
		c-0.132,0-0.637,0.72-1.519,2.156c-0.882,1.438-1.928,3.136-3.136,5.096c-1.21,1.96-2.303,3.577-3.283,4.851
		c-0.98,1.274-2.239,2.484-3.773,3.626c-1.536,1.144-2.729,1.715-3.577,1.715c-1.242,0-1.862-0.946-1.862-2.842
		c0-1.894,0.539-4.344,1.617-7.35c1.078-3.004,2.041-5.39,2.891-7.154c0.848-1.764,2.139-4.376,3.871-7.84
		c1.73-3.462,3.119-5.586,4.165-6.37h-0.98l-4.9-0.098C192.854,30.528,190.306,32.488,188.02,36.408 M210.854,14.897
		c0-1.012-0.36-1.845-1.078-2.499c-0.72-0.652-1.798-0.98-3.234-0.98c-1.438,0-2.94,0.867-4.508,2.597
		c-1.568,1.732-2.352,3.447-2.352,5.145c0,1.7,0.848,2.876,2.548,3.528c0.522-1.176,1.387-2.318,2.597-3.43
		c1.208-1.11,2.465-1.666,3.773-1.666h0.392C210.232,16.808,210.854,15.911,210.854,14.897 M145.39,61.888
		c-1.568,0-2.352-1.012-2.352-3.038c0-2.94,0.897-6.353,2.695-10.241c1.796-3.886,4.18-7.316,7.154-10.29
		c2.972-2.972,5.929-4.459,8.869-4.459c1.828,0,3.136,0.588,3.92,1.764C157.444,53.134,150.682,61.888,145.39,61.888 M185.619,5.783
		c-2.254,0.034-3.888,0.164-4.9,0.392c-1.014,0.23-1.879,0.801-2.597,1.715c-0.458,0.588-0.833,1.21-1.127,1.862
		c-0.294,0.654-0.752,1.683-1.372,3.087c-0.622,1.406-1.896,4.459-3.822,9.163c-1.928,4.704-3.807,8.854-5.635,12.446
		c-1.634-2.874-4.623-4.312-8.967-4.312c-4.346,0-8.379,1.651-12.103,4.949c-3.724,3.3-6.583,7.301-8.575,12.005
		c-1.994,4.704-2.989,9.344-2.989,13.916c0,6.012,2.188,9.016,6.566,9.016c3.854,0,7.708-2.188,11.564-6.566
		c3.854-4.376,7.284-9.538,10.29-15.484c-1.896,5.946-2.842,10.814-2.842,14.602c0,5.162,1.73,7.742,5.194,7.742
		c2.024,0,4.278-1.012,6.762-3.038c2.482-2.024,4.606-4.214,6.37-6.566c5.356-7.252,8.068-12.02,8.134-14.308
		c0-1.24-0.23-1.862-0.686-1.862c-0.132,0-0.637,0.735-1.519,2.205s-1.928,3.202-3.136,5.194c-1.21,1.994-2.173,3.479-2.891,4.459
		c-0.72,0.98-1.911,2.19-3.577,3.626c-1.666,1.438-3.055,2.156-4.165,2.156c-1.112,0-1.666-1.044-1.666-3.136
		c0-3.592,1.338-9.391,4.018-17.395c2.678-8.002,5.765-15.614,9.261-22.834c3.494-7.218,6.321-11.613,8.477-13.181
		C189.228,5.702,187.873,5.751,185.619,5.783 M120.499,39.544c-1.634,0-2.925,0.524-3.871,1.568
		c-0.948,1.046-1.421,2.45-1.421,4.214c0,2.876,1.11,5.26,3.332,7.154c-1.634,3.594-3.643,6.877-6.027,9.849
		c-2.386,2.974-4.983,4.459-7.791,4.459c-3.398-0.196-5.096-2.254-5.096-6.174c0-3.92,1.176-8.296,3.528-13.132
		c4.312-8.754,8.722-13.132,13.23-13.132c2.874,0,4.442,1.732,4.704,5.194H120.499z M127.849,54.146
		c-1.83,0-3.234-0.686-4.214-2.058c1.372-3.462,2.058-6.762,2.058-9.898c0-8.232-3.888-12.348-11.662-12.348
		c-4.64,0-8.837,1.568-12.593,4.704c-3.758,3.136-6.566,6.877-8.428,11.221c-1.862,4.346-2.793,8.56-2.793,12.642
		c0,4.084,1.029,7.122,3.087,9.114c2.058,1.994,4.719,2.989,7.987,2.989c5.096,0,9.261-1.338,12.495-4.018
		c3.234-2.678,6.027-6.336,8.379-10.976c1.568,1.242,3.445,1.862,5.635,1.862c2.188,0,4.54-1.029,7.056-3.087
		c2.514-2.058,3.773-4.655,3.773-7.791c0-0.98-0.196-1.47-0.588-1.47c-0.196,0-0.392,0.196-0.588,0.588
		C134.447,51.304,131.245,54.146,127.849,54.146 M76.498,39.544c-1.634,0-2.925,0.524-3.871,1.568
		c-0.948,1.046-1.421,2.45-1.421,4.214c0,2.876,1.11,5.26,3.332,7.154c-1.634,3.594-3.643,6.877-6.027,9.849
		c-2.386,2.974-4.983,4.459-7.791,4.459c-3.398-0.196-5.096-2.254-5.096-6.174c0-3.92,1.176-8.296,3.528-13.132
		c4.312-8.754,8.722-13.132,13.23-13.132c2.874,0,4.442,1.732,4.704,5.194H76.498z M83.848,54.146c-1.83,0-3.234-0.686-4.214-2.058
		c1.372-3.462,2.058-6.762,2.058-9.898c0-8.232-3.888-12.348-11.662-12.348c-4.64,0-8.837,1.568-12.593,4.704
		c-3.758,3.136-6.566,6.877-8.428,11.221c-1.862,4.346-2.793,8.56-2.793,12.642c0,4.084,1.029,7.122,3.087,9.114
		c2.058,1.994,4.719,2.989,7.987,2.989c5.096,0,9.261-1.338,12.495-4.018c3.234-2.678,6.027-6.336,8.379-10.976
		c1.568,1.242,3.445,1.862,5.635,1.862c2.188,0,4.54-1.029,7.056-3.087c2.514-2.058,3.773-4.655,3.773-7.791
		c0-0.98-0.196-1.47-0.588-1.47c-0.196,0-0.392,0.196-0.588,0.588C90.446,51.304,87.244,54.146,83.848,54.146 M36.221,1.324
		c-5.032,0-9.05,0.328-12.054,0.98c-6.6,1.504-11.14,5.652-13.622,12.446c-0.066,0.132-0.098,0.377-0.098,0.735
		c0,0.36,0.13,0.539,0.392,0.539c0.26,0,0.424-0.098,0.49-0.294c2.94-5.03,11.792-8.59,26.558-10.682
		c-3.006,4.444-7.286,13.23-12.838,26.362h-3.332c-0.784,0-1.798,0.556-3.038,1.666c-1.242,1.112-1.862,1.994-1.862,2.646
		c0,0.328,0.26,0.49,0.784,0.49h5.39c-6.076,14.896-9.996,26.068-11.76,33.516h12.642c-0.262-0.456-0.392-1.176-0.392-2.156
		c0-5.488,3.168-15.94,9.506-31.36h20.286c0.588,0,1.338-0.669,2.254-2.009c0.914-1.338,1.372-2.237,1.372-2.695l-0.098-0.098
		H35.045c5.03-11.824,9.08-19.926,12.152-24.304c0.718-1.044,1.617-1.73,2.695-2.058c1.078-0.326,2.759-0.49,5.047-0.49
		c2.286,0,4.361,0.605,6.223,1.813c1.862,1.21,2.793,2.793,2.793,4.753l-0.784,5.88c0,0.524,0.343,0.784,1.029,0.784
		c0.686,0,1.828-1.747,3.43-5.243c1.6-3.494,2.401-6.385,2.401-8.673c0-0.392-0.115-0.995-0.343-1.813
		c-0.23-0.816-1.357-1.225-3.381-1.225l-10.682,0.49H36.221z"/>
	<path fill="none" stroke="#F1ECE2" d="M253.947,166.378h10.26v-5.4h-16.2v37.8h16.2v-5.4h-10.26v-11.07h8.154v-5.4h-8.154V166.378z
		 M223.816,166.378h6.21v32.4h5.94v-32.4h6.21v-5.4h-18.36V166.378z M210.91,167.674l2.862,19.116h-5.724L210.91,167.674z
		 M215.554,160.978h-8.694l-6.048,37.8h5.454l1.026-6.858h7.29l1.026,6.858h5.994L215.554,160.978z M186.232,166.378
		c2.106,0,3.024,1.188,3.024,3.888v3.726c0,3.024-1.35,3.996-3.564,3.996h-2.322v-11.61H186.232z M195.898,198.778
		c-0.594-1.404-0.648-2.754-0.648-4.59v-5.832c0-3.942-0.972-6.804-3.942-8.046c2.646-1.242,3.888-3.78,3.888-7.668v-2.97
		c0-5.832-2.646-8.694-8.802-8.694h-8.964v37.8h5.94v-15.39h2.052c2.7,0,3.888,1.296,3.888,4.806v5.94
		c0,3.078,0.216,3.672,0.54,4.644H195.898z M152.32,189.706c0,6.048,3.186,9.504,9.018,9.504s9.018-3.456,9.018-9.504V170.05
		c0-6.048-3.186-9.504-9.018-9.504s-9.018,3.456-9.018,9.504V189.706z M158.26,169.672c0-2.7,1.188-3.726,3.078-3.726
		s3.078,1.026,3.078,3.726v20.412c0,2.7-1.188,3.726-3.078,3.726s-3.078-1.026-3.078-3.726V169.672z M136.445,166.378
		c2.106,0,3.024,1.188,3.024,3.888v2.106c0,3.024-1.35,3.996-3.564,3.996h-2.322v-9.99H136.445z M136.229,181.768
		c2.7,0,3.834,1.08,3.834,4.59v3.294c0,2.808-1.08,3.726-3.078,3.726h-3.402v-11.61H136.229z M136.607,160.978h-8.964v37.8h9.342
		c5.94,0,9.018-3.132,9.018-8.964v-3.078c0-3.996-1.242-6.858-4.428-8.1c2.646-1.242,3.834-3.726,3.834-7.614v-1.35
		C145.409,163.84,142.763,160.978,136.607,160.978z M110.957,167.674l2.862,19.116h-5.724L110.957,167.674z M115.601,160.978h-8.694
		l-6.048,37.8h5.454l1.026-6.858h7.29l1.026,6.858h5.994L115.601,160.978z M80.879,198.778h15.714v-5.4h-9.774v-32.4h-5.94V198.778z
		 M59.334,198.778h15.714v-5.4h-9.774v-32.4h-5.94V198.778z M34.224,189.706c0,6.048,3.186,9.504,9.018,9.504
		s9.018-3.456,9.018-9.504V170.05c0-6.048-3.186-9.504-9.018-9.504s-9.018,3.456-9.018,9.504V189.706z M40.164,169.672
		c0-2.7,1.188-3.726,3.078-3.726c1.89,0,3.078,1.026,3.078,3.726v20.412c0,2.7-1.188,3.726-3.078,3.726
		c-1.89,0-3.078-1.026-3.078-3.726V169.672z M22.237,184.684v5.4c0,2.7-1.188,3.672-3.078,3.672s-3.078-0.972-3.078-3.672v-20.412
		c0-2.7,1.188-3.726,3.078-3.726s3.078,1.026,3.078,3.726v4.05h5.616v-3.672c0-6.048-3.024-9.504-8.856-9.504
		s-8.856,3.456-8.856,9.504v19.656c0,6.048,3.024,9.504,8.856,9.504s8.856-3.456,8.856-9.504v-5.022H22.237z"/>
	<path fill="#F1ECE2" d="M271.061,149.578l-1.653,5.7h2.565l2.736-6.327v-5.415h-6.042v6.042H271.061z M253.164,115.378h10.83v-5.7
		h-17.1v39.9h17.1v-5.7h-10.83v-11.685h8.607v-5.7h-8.607V115.378z M229.053,115.378c2.223,0,3.192,1.254,3.192,4.104v3.933
		c0,3.192-1.425,4.218-3.762,4.218h-2.451v-12.255H229.053z M239.256,149.578c-0.627-1.482-0.684-2.907-0.684-4.845v-6.156
		c0-4.161-1.026-7.182-4.161-8.493c2.793-1.311,4.104-3.99,4.104-8.094v-3.135c0-6.156-2.793-9.177-9.291-9.177h-9.462v39.9h6.27
		v-16.245h2.166c2.85,0,4.104,1.368,4.104,5.073v6.27c0,3.249,0.228,3.876,0.57,4.902H239.256z M201.351,116.746l3.021,20.178
		h-6.042L201.351,116.746z M206.253,109.678h-9.177l-6.384,39.9h5.757l1.083-7.239h7.695l1.083,7.239h6.327L206.253,109.678z
		 M170.059,132.478h7.125v17.1h6.384v-39.9h-6.384v17.1h-7.125v-17.1h-6.27v39.9h6.27V132.478z M137.455,119.254
		c0,11.4,12.255,12.939,12.255,21.147c0,2.85-1.254,3.876-3.249,3.876c-1.995,0-3.249-1.026-3.249-3.876v-2.85h-5.928v2.451
		c0,6.384,3.192,10.032,9.348,10.032c6.156,0,9.348-3.648,9.348-10.032c0-11.4-12.255-12.939-12.255-21.147
		c0-2.85,1.14-3.933,3.135-3.933c1.995,0,3.135,1.083,3.135,3.933v1.653h5.928v-1.254c0-6.384-3.135-10.032-9.234-10.032
		S137.455,112.87,137.455,119.254 M120.755,149.578l-1.653,5.7h2.565l2.736-6.327v-5.415h-6.042v6.042H120.755z M104.853,149.578
		h6.441l-8.721-22.116l8.721-17.784h-6.27l-8.208,17.385v-17.385h-6.27v39.9h6.27v-12.255l1.938-3.648L104.853,149.578z
		 M63.243,140.002c0,6.384,3.363,10.032,9.519,10.032s9.519-3.648,9.519-10.032v-20.748c0-6.384-3.363-10.032-9.519-10.032
		s-9.519,3.648-9.519,10.032V140.002z M69.513,118.855c0-2.85,1.254-3.933,3.249-3.933c1.995,0,3.249,1.083,3.249,3.933v21.546
		c0,2.85-1.254,3.933-3.249,3.933c-1.995,0-3.249-1.083-3.249-3.933V118.855z M36.453,140.002c0,6.384,3.363,10.032,9.519,10.032
		s9.519-3.648,9.519-10.032v-20.748c0-6.384-3.363-10.032-9.519-10.032s-9.519,3.648-9.519,10.032V140.002z M42.723,118.855
		c0-2.85,1.254-3.933,3.249-3.933c1.995,0,3.249,1.083,3.249,3.933v21.546c0,2.85-1.254,3.933-3.249,3.933
		c-1.995,0-3.249-1.083-3.249-3.933V118.855z M23.002,134.701v5.7c0,2.85-1.254,3.876-3.249,3.876s-3.249-1.026-3.249-3.876v-21.546
		c0-2.85,1.254-3.933,3.249-3.933s3.249,1.083,3.249,3.933v4.275h5.928v-3.876c0-6.384-3.192-10.032-9.348-10.032
		s-9.348,3.648-9.348,10.032v20.748c0,6.384,3.192,10.032,9.348,10.032s9.348-3.648,9.348-10.032v-5.301H23.002z"/>
	<path fill="#F1ECE2" d="M258.764,226.283h4.56v-2.4h-7.2v16.8h7.2v-2.4h-4.56v-4.92h3.624v-2.4h-3.624V226.283z M243.837,233.483h3
		v7.2h2.688v-16.8h-2.688v7.2h-3v-7.2h-2.64v16.8h2.64V233.483z M227.205,226.283h2.76v14.4h2.64v-14.4h2.76v-2.4h-8.16V226.283z
		 M209.493,233.723h1.2v3.096c0,1.2-0.528,1.632-1.368,1.632s-1.368-0.432-1.368-1.632v-9.072c0-1.2,0.528-1.656,1.368-1.656
		s1.368,0.456,1.368,1.656v1.8h2.496v-1.632c0-2.688-1.344-4.224-3.936-4.224c-2.592,0-3.936,1.536-3.936,4.224v8.736
		c0,2.688,1.344,4.224,3.936,4.224c2.592,0,3.936-1.536,3.936-4.224v-5.328h-3.696V233.723z M196.245,240.683h2.712v-16.8h-2.352
		v10.056l-2.712-10.056h-3.312v16.8h2.376v-12.168L196.245,240.683z M181.366,240.683h2.64v-16.8h-2.64V240.683z M172.078,240.683
		h2.712v-16.8h-2.352v10.056l-2.712-10.056h-3.312v16.8h2.376v-12.168L172.078,240.683z M157.198,240.683h2.64v-16.8h-2.64V240.683z
		 M146.902,226.283h4.344v-2.4h-6.984v16.8h2.64v-6.936h3.408v-2.4h-3.408V226.283z M133.391,226.283h4.56v-2.4h-7.2v16.8h7.2v-2.4
		h-4.56v-4.92h3.624v-2.4h-3.624V226.283z M120.407,226.283c0.84,0,1.344,0.432,1.344,1.632v8.736c0,1.2-0.504,1.632-1.344,1.632
		h-1.488v-12H120.407z M116.279,240.683h4.176c2.64,0,3.936-1.464,3.936-4.152v-8.496c0-2.688-1.296-4.152-3.936-4.152h-4.176
		V240.683z M105.407,226.283h4.56v-2.4h-7.2v16.8h7.2v-2.4h-4.56v-4.92h3.624v-2.4h-3.624V226.283z M92.351,226.283
		c0.936,0,1.344,0.528,1.344,1.728v1.656c0,1.344-0.6,1.776-1.584,1.776h-1.032v-5.16H92.351z M96.647,240.683
		c-0.264-0.624-0.288-1.224-0.288-2.04v-2.592c0-1.752-0.432-3.024-1.752-3.576c1.176-0.552,1.728-1.68,1.728-3.408v-1.32
		c0-2.592-1.176-3.864-3.912-3.864h-3.984v16.8h2.64v-6.84h0.912c1.2,0,1.728,0.576,1.728,2.136v2.64
		c0,1.368,0.096,1.632,0.24,2.064H96.647z M69.167,226.283h4.56v-2.4h-7.2v16.8h7.2v-2.4h-4.56v-4.92h3.624v-2.4h-3.624V226.283z
		 M56.111,226.283c0.936,0,1.344,0.528,1.344,1.728v1.656c0,1.344-0.6,1.776-1.584,1.776h-1.032v-5.16H56.111z M60.407,240.683
		c-0.264-0.624-0.288-1.224-0.288-2.04v-2.592c0-1.752-0.432-3.024-1.752-3.576c1.176-0.552,1.728-1.68,1.728-3.408v-1.32
		c0-2.592-1.176-3.864-3.912-3.864h-3.984v16.8h2.64v-6.84h0.912c1.2,0,1.728,0.576,1.728,2.136v2.64
		c0,1.368,0.096,1.632,0.24,2.064H60.407z M44.064,226.427l-0.696,2.4h1.08l1.152-2.664v-2.28h-2.544v2.544H44.064z M32.184,226.283
		h4.56v-2.4h-7.2v16.8h7.2v-2.4h-4.56v-4.92h3.624v-2.4h-3.624V226.283z M18.168,240.683h3.504l1.872-16.8H21.24l-1.368,13.344
		l-1.32-13.344h-2.544l-1.272,13.248l-1.416-13.248h-2.568l1.872,16.8h3.624l0.96-8.952L18.168,240.683z"/>
	<line fill="none" stroke="#F1ECE2" stroke-width="1.5" x1="34.647" y1="91.828" x2="10.447" y2="91.828"/>
	<line fill="none" stroke="#F1ECE2" stroke-width="1.5" x1="262.324" y1="91.828" x2="238.124" y2="91.828"/>
	
		<line fill="none" stroke="#F1ECE2" stroke-width="1.5" stroke-linecap="round" stroke-linejoin="round" stroke-dasharray="0,4.5" x1="15.792" y1="213.283" x2="261.042" y2="213.283"/>
	
		<line fill="none" stroke="#F1ECE2" stroke-width="1.5" stroke-linecap="round" stroke-linejoin="round" stroke-dasharray="0,4.5" x1="15.792" y1="250.233" x2="261.042" y2="250.233"/>
	<path fill="none" stroke="#FFFFFF" stroke-width="1.5" stroke-linecap="round" stroke-linejoin="round" d="M263.292,250.233
		L263.292,250.233 M11.292,250.233L11.292,250.233"/>
	<path fill="#F1ECE2" d="M105.99,319.787c-2.304,2.304-3.456,4.176-3.456,5.616c0,0.961,0.911,1.44,2.736,1.44
		c1.824,0,3.732-0.887,5.724-2.664c1.992-1.775,3.084-3.695,3.276-5.76c0-1.391-0.672-2.088-2.016-2.088
		C110.382,316.331,108.294,317.483,105.99,319.787 M174.388,333.539c2.927-4.943,4.392-8.807,4.392-11.592
		c0-1.199-0.36-1.895-1.08-2.088c-0.144-0.047-0.36-0.072-0.648-0.072c-1.008,0-2.113,0.481-3.312,1.44
		c-1.969,1.537-4.057,4.081-6.264,7.632c-2.208,3.553-3.312,6.457-3.312,8.712c0,2.257,0.695,3.384,2.088,3.384
		C168.747,340.955,171.46,338.484,174.388,333.539 M201.532,319.787c-2.304,2.304-3.456,4.176-3.456,5.616
		c0,0.961,0.911,1.44,2.736,1.44c1.823,0,3.731-0.887,5.724-2.664c1.991-1.775,3.083-3.695,3.276-5.76
		c0-1.391-0.673-2.088-2.016-2.088C205.924,316.331,203.836,317.483,201.532,319.787 M217.876,325.511
		c0,0.936-0.385,2.052-1.152,3.348c-0.769,1.296-1.525,2.52-2.268,3.672c-0.745,1.152-1.741,2.497-2.988,4.032
		c-1.249,1.537-2.473,2.761-3.672,3.672c-3.024,2.209-6.061,3.312-9.108,3.312c-3.049,0-5.508-0.779-7.38-2.34
		c-1.872-1.559-2.808-3.947-2.808-7.164c0-0.481,0.031-0.956,0.066-1.431c-1.963,2.858-4.024,5.236-6.186,7.119
		c-3.36,2.929-7.344,4.392-11.952,4.392s-7.2-1.176-7.776-3.528l-4.032,12.6c-0.96,2.832-1.692,4.668-2.196,5.508
		c-0.504,0.84-1.068,1.38-1.692,1.62c-0.623,0.24-1.415,0.36-2.376,0.36H148.9c1.249-1.824,3.769-8.124,7.56-18.9
		c0.981-2.789,1.873-5.305,2.683-7.572c-0.388,0.563-0.767,1.096-1.135,1.596c-1.464,1.993-3.132,3.733-5.004,5.22
		c-1.872,1.489-3.576,2.232-5.112,2.232c-2.688,0-4.032-1.872-4.032-5.616c0-1.441,0.124-2.922,0.37-4.441
		c-0.436,0.63-0.98,1.401-1.665,2.353c-1.104,1.537-2.064,2.641-2.88,3.312c-0.816,0.673-1.848,1.465-3.096,2.376
		c-2.112,1.537-4.86,2.304-8.244,2.304c-3.384,0-5.832-0.851-7.344-2.556c-1.512-1.703-2.268-3.924-2.268-6.66
		c0-0.554,0.031-1.101,0.074-1.646c-0.734,1.12-1.684,2.406-2.881,3.878c-1.249,1.537-2.473,2.761-3.672,3.672
		c-3.024,2.209-6.06,3.312-9.108,3.312c-3.048,0-5.508-0.779-7.38-2.34c-1.872-1.559-2.808-3.947-2.808-7.164
		c0-4.896,1.8-9.432,5.4-13.608c3.6-4.176,7.8-6.264,12.6-6.264c2.16,0,3.888,0.565,5.184,1.692
		c1.296,1.129,1.944,2.484,1.944,4.068c0,2.689-1.272,4.849-3.816,6.48c-2.545,1.633-5.544,2.448-9,2.448
		c-2.016,0-3.504-0.263-4.464-0.792c-0.912,2.448-1.368,4.608-1.368,6.48c0,4.032,1.704,6.048,5.112,6.048
		c2.016,0,4.092-0.779,6.228-2.34c2.136-1.559,3.96-3.312,5.472-5.256c1.181-1.518,2.491-3.574,3.921-6.132
		c0.893-2.229,2.195-4.363,3.926-6.396c3.576-4.199,7.788-6.3,12.636-6.3c2.16,0,3.888,0.565,5.184,1.692
		c1.296,1.129,1.944,2.473,1.944,4.032c0,1.561-0.432,2.916-1.296,4.068c-0.864,1.152-1.848,1.728-2.952,1.728
		c-2.16,0-3.24-0.887-3.24-2.664c0-0.576,0.6-1.127,1.8-1.656c0.48-0.191,0.912-0.551,1.296-1.08
		c0.384-0.527,0.576-1.224,0.576-2.088c0-1.247-0.672-1.872-2.016-1.872c-2.88,0-5.736,2.088-8.568,6.264
		c-2.832,4.176-4.248,8.221-4.248,12.132c0,3.913,1.704,5.868,5.112,5.868c4.752,0,9.384-3.672,13.896-11.016
		c0.648-1.023,1.189-1.898,1.68-2.703c0.969-2.736,2.267-5.574,3.935-8.529c1.68-2.88,3.552-4.32,5.616-4.32l3.6,0.072h0.72
		c-0.768,0.576-1.788,2.137-3.06,4.68c-1.272,2.545-2.22,4.464-2.844,5.76c-0.624,1.296-1.332,3.049-2.124,5.256
		c-0.792,2.209-1.188,4.009-1.188,5.4c0,1.393,0.456,2.088,1.368,2.088c0.624,0,1.5-0.419,2.628-1.26
		c1.128-0.839,2.052-1.728,2.772-2.664s1.524-2.124,2.412-3.564c0.888-1.44,1.656-2.687,2.304-3.744
		c0.057-0.092,0.1-0.158,0.153-0.243c0.755-2.031,1.358-3.599,1.791-4.653c1.224-2.975,2.124-4.775,2.7-5.4
		c1.152-1.152,3.143-1.728,5.976-1.728h2.16c-1.393,0.961-3.288,3.841-5.688,8.64c4.464-5.951,8.399-8.928,11.808-8.928
		c3.215,0,4.824,2.209,4.824,6.624c0,3.649-1.152,7.393-3.456,11.232c-2.304,3.841-5.016,6.817-8.136,8.928h0.576
		c1.968,0,3.971-0.792,6.012-2.376c2.04-1.584,3.804-3.335,5.292-5.256c0.816-1.055,1.968-2.844,3.456-5.364
		c0.134-0.226,0.255-0.43,0.377-0.636c0.9-2.239,2.236-4.392,4.015-6.456c3.6-4.176,7.799-6.264,12.6-6.264
		c2.16,0,3.888,0.565,5.184,1.692c1.296,1.129,1.944,2.484,1.944,4.068c0,2.689-1.273,4.849-3.816,6.48
		c-2.545,1.633-5.544,2.448-9,2.448c-2.016,0-3.505-0.263-4.464-0.792c-0.913,2.448-1.368,4.608-1.368,6.48
		c0,4.032,1.703,6.048,5.112,6.048c2.016,0,4.091-0.779,6.228-2.34c2.135-1.559,3.96-3.312,5.472-5.256
		c1.512-1.944,3.227-4.739,5.148-8.388c0.191-0.335,0.36-0.504,0.504-0.504C217.732,324.107,217.876,324.575,217.876,325.511
		 M166.612,302.543c0,0.745-0.456,1.404-1.368,1.98h-0.288c-0.96,0-1.884,0.409-2.772,1.224c-0.888,0.817-1.524,1.656-1.908,2.52
		c-1.248-0.479-1.872-1.343-1.872-2.592c0-1.247,0.576-2.507,1.728-3.78c1.152-1.271,2.256-1.908,3.312-1.908
		s1.848,0.241,2.376,0.72C166.348,301.188,166.612,301.8,166.612,302.543 M96.63,302.363c0,2.833-0.84,5.328-2.519,7.488
		c-2.977,3.937-7.56,6.48-13.753,7.632l-2.303,0.432c2.399,8.352,7.439,16.609,15.119,24.768c-0.72,0.144-1.824,0.216-3.312,0.216
		l-5.543-0.216c-1.921,0-3.949-1.883-6.085-5.652c-2.136-3.767-3.828-7.607-5.075-11.52c-1.249-3.911-1.873-6.516-1.873-7.812
		c0-0.72,0.336-1.103,1.008-1.152c11.28-1.391,17.088-5.807,17.425-13.248c0-2.639-0.781-4.68-2.34-6.12
		c-1.561-1.44-4.117-2.255-7.668-2.448c-3.745,5.04-7.897,13.104-12.457,24.192c-4.512,11.281-6.767,18.72-6.767,22.32
		c0,0.72,0.095,1.249,0.288,1.584h-9.288c1.343-5.807,4.176-13.871,8.496-24.192c5.759-13.727,9.479-21.528,11.159-23.4
		c-4.08,0.097-8.22,0.925-12.419,2.484c-4.201,1.561-6.637,3.42-7.309,5.58c-0.048,0.144-0.143,0.216-0.288,0.216
		c-0.432,0-0.647-0.311-0.647-0.936c0-0.095,0.047-0.335,0.143-0.72c0.912-2.639,2.232-4.68,3.96-6.12
		c1.729-1.44,3.42-2.327,5.077-2.664c1.656-0.335,3.708-0.504,6.156-0.504h17.496c4.415,0,7.74,0.925,9.971,2.772
		C95.514,297.192,96.63,299.532,96.63,302.363 M262.716,388.394V267.849c-45.298,23.162-89.013-25.374-123.984,7.508v32.826h-1.682
		v-32.826c-34.971-32.882-78.686,16.654-123.984-6.508v120.545c45.298,23.215,88.051-27.278,123.984,6.508v-47.219h1.682v47.219
		C174.665,362.116,217.418,411.609,262.716,388.394"/>
</g>
</svg>
